<svg xmlns="http://www.w3.org/2000/svg" viewBox="0 0 1400 1400" xml:space="preserve"><path fill="#E0DDDC" d="M1243.7 696.5c-19.8-1.1-38.6 8.2-52.8 21.5-13.3 12.5-21.1 30.4-26.1 47.6-7.9 27.5-7.9 56.7-17.8 83.6-1.9 4-4.1 8-6.6 11.7-.6.8-1.1 1.7-1.7 2.5-1.8 2.2-3.8 4.3-5.8 6.3-1.9 1.9-3.9 3.7-6 5.5-.5.3-1 .7-1.5 1-4 2.8-8.2 5.1-12.6 7.2-5.2 1.9-10.6 3.4-16 4.4-5.8.5-11.6.5-17.4 0-7-1.3-13.8-3.3-20.5-6-7.5-3.1-18.1-.7-24.8 3.2-7.2 4.2-12.6 11.2-14.8 19.3-2.3 8.3-1.1 17.4 3.2 24.8 4.6 7.9 11.1 11.4 19.3 14.8 48.9 20.3 109.6 4.5 143.3-36 17.3-20.8 26.9-45 31.8-71.5 3.9-20.9 5.5-42.5 12.9-62.5.7-1.5 1.5-3.1 2.4-4.6.7-1.3 1.5-2.5 2.3-3.7.9-1 2.7-2.5 3.7-3.5l1.5-.9c.5-.1.9-.3 1.4-.4.8 0 1.7 0 2.5.1 17.5.9 32.2-15.4 32.2-32.2.1-18.2-14.6-31.2-32.1-32.2z"/>
    <path fill="#F4F4F4"
          d="M1093.4 869c18.3 72.5 7.1 182.7-177.6 181.5-167.1-1.1-191.2-91.8-171.4-181.5 21-95 78.1-166.3 174.5-166.3s152.3 78.5 174.5 166.3z"/>
    <path fill="#EFEAE8"
          d="M803.2 431c-.6-1.9-2.3-2.5-3.8-2.2-.1-.1-.3-.2-.4-.3-28.1-15-58.6-24.7-90.2-28.8-13.7-1.8-29.7-4.5-40.1 6.7-9.8 10.5-11 27.2-10.6 40.8.8 27.5 7.7 55.4 20.5 79.7 6.2 11.9 14.3 22.8 23.9 32.2 3.9 3.8 9 9.3 14.3 11 6 1.9 11.1-.1 15.9-3.9 4.3-3.4 7.5-8.5 10.7-12.8 4-5.5 8-11.1 12-16.6 8.3-11.7 16.3-23.6 24-35.7 12.9-20.2 31.4-44.8 23.8-70.1z"/>
    <path fill="#E0C7BF"
          d="M768 462.7c-.3-1.2-1.4-1.5-2.3-1.3-.1-.1-.2-.1-.3-.2-16.9-9-35.3-14.9-54.3-17.4-8.2-1.1-17.9-2.7-24.2 4-5.9 6.3-6.6 16.4-6.4 24.6.5 16.5 4.6 33.4 12.3 48 3.8 7.2 8.6 13.8 14.4 19.4 2.3 2.3 5.4 5.6 8.6 6.6 3.6 1.1 6.7-.1 9.6-2.3 2.6-2 4.5-5.1 6.5-7.7 2.4-3.3 4.8-6.7 7.2-10 5-7.1 9.8-14.2 14.5-21.5 7.8-12.1 19-26.9 14.4-42.2z"/>
    <path fill="#A32B0F"
          d="M1063.3 771.3c-9.6 25.3-65.5 49-146.4 49s-138.2-23.2-146.4-49c-24.3-76.2 65.5-49 146.4-49s174.3-24.4 146.4 49z"/>
    <path fill="#EFEAE8"
          d="M1032.3 431c.6-1.9 2.3-2.5 3.8-2.2.1-.1.3-.2.4-.3 28.1-15 58.6-24.7 90.2-28.8 13.7-1.8 29.7-4.5 40.1 6.7 9.8 10.5 11 27.2 10.6 40.8-.8 27.5-7.7 55.4-20.5 79.7-6.2 11.9-14.3 22.8-23.9 32.2-3.9 3.8-9 9.3-14.3 11-6 1.9-11.1-.1-15.9-3.9-4.3-3.4-7.5-8.5-10.7-12.8-4-5.5-8-11.1-12-16.6-8.3-11.7-16.3-23.6-24-35.7-12.8-20.2-31.3-44.8-23.8-70.1z"/>
    <path fill="#E0C7BF"
          d="M1067.5 462.7c.3-1.2 1.4-1.5 2.3-1.3.1-.1.2-.1.3-.2 16.9-9 35.3-14.9 54.3-17.4 8.2-1.1 17.9-2.7 24.2 4 5.9 6.3 6.6 16.4 6.4 24.6-.5 16.5-4.6 33.4-12.3 48-3.8 7.2-8.6 13.8-14.4 19.4-2.3 2.3-5.4 5.6-8.6 6.6-3.6 1.1-6.7-.1-9.6-2.3-2.6-2-4.5-5.1-6.5-7.7-2.4-3.3-4.8-6.7-7.2-10-5-7.1-9.8-14.2-14.5-21.5-7.7-12.1-18.9-26.9-14.4-42.2z"/>
    <path fill="#F4F4F4"
          d="M1137.5 596.9c16.9 119.8-98.1 190-219 190-121 0-235.7-70.2-219-190 17.7-127.2 98.1-198.1 219-198.1s201.3 72.4 219 198.1z"/>
    <path fill="#3F2D20"
          d="M892.8 659.2c-.9-1.2-1.6-2.4-2.2-3.6-5.4-11 2.9-24.2 14.8-25.1 2.8-.2 5.6-.4 8.5-.4 3.7 0 7.5.2 11.1.5 9 .8 16.2 8.5 16.3 17.5.1 10.8-10.8 18.8-20 22-10.4 3.8-22.2-2.4-28.5-10.9z"/>
    <ellipse fill="#845739" cx="906.5" cy="645.6" rx="8.4" ry="6.4"/>
    <path fill="#3F2D20"
          d="M918.6 670.9c-.2-4.3-6.4-4.3-6.2 0 .8 18.5-16.2 27.7-31.2 28.9-8 .7-15.7-.4-22.6-5-6.4-4.3-13.5-12.1-13.7-20.6-.1-4.3-6.3-4.3-6.2 0 .2 10 6.6 17.7 13.5 23.8 8.4 7.4 18.4 9 29 8.5 18.3-1 38.4-13.6 37.4-35.6z"/>
    <path fill="#3F2D20"
          d="M914.2 670.9c.2-4.3 6.4-4.3 6.2 0-.8 18.5 16.2 27.7 31.2 28.9 8 .7 15.7-.4 22.6-5 6.4-4.3 13.5-12.1 13.7-20.6.1-4.3 6.3-4.3 6.2 0-.2 10-6.6 17.7-13.5 23.8-8.4 7.4-18.4 9-29 8.5-18.3-1-38.4-13.6-37.4-35.6z"/>
    <circle fill="#3F2D20" cx="819.9" cy="599.1" r="25.1"/>
    <circle fill="#F4F4F4" cx="826.7" cy="600.6" r="8.6"/>
    <circle fill="#F4F4F4" cx="813" cy="611.8" r="3.6"/>
    <path fill="#3F2D20"
          d="M829 520.5c-5.3-16.9-32-12.6-34.3 4.1-.6 4.1 5.6 5.8 6.2 1.7.7-4.7 3.1-7.8 7.7-9.3 5.4-1.8 12.3-.9 14.2 5.2 1.2 3.9 7.5 2.2 6.2-1.7z"/>
    <path fill="#DBD3CE"
          d="M1002.4 1033.4c-.9-2.7-1.9-5.3-2.9-8-.4-.9-.7-1.8-1.1-2.7-.3-.7-.8-1.9-1-2.2-4.9-10.7-10.6-21.1-17.6-30.5-.1-.2-.3-.4-.4-.5-.3-.4-.7-.9-1-1.3-.9-1.1-1.8-2.1-2.7-3.2-1.8-2-3.7-4.1-5.6-6-1.9-1.9-3.9-3.8-6-5.5-.6-.5-1.1-1-1.7-1.4-.5-.3-1.7-1.3-2.1-1.5-4.3-3-8.9-5.7-13.6-7.9-.6-.2-1.9-.8-2.3-.9-1.3-.5-2.6-.9-3.9-1.3-2.7-.8-5.4-1.5-8.1-2.1-.8-.2-5.9-.9-3.4-.6-1.1-.1-2.1-.2-3.2-.3-3-.2-6-.3-9-.2-1.6.1-3.1.1-4.7.2-.6 0-4 .6-3 .4-2.3.4-4.5.9-6.7 1.6-1.8.5-3.6 1.1-5.4 1.7-.6.2-3.4 1.4-2.5 1-2 .9-4 1.9-5.9 3-2.4 1.4-4.9 2.8-7.2 4.4-.9.6-1.8 1.2-2.7 1.9-.6.4-1.3 1-1.6 1.2-4.7 4-9.2 8.3-13.2 13-.8.9-1.5 1.8-2.2 2.7-.5.6-1 1.3-1.2 1.5-1.7 2.3-3.3 4.7-4.8 7.2-3.3 5.3-6.3 10.8-8.8 16.6-.1.1-.1.2-.1.3-.1.2-.2.4-.3.7-.5 1.3-1 2.7-1.5 4-.9 2.7-1.8 5.4-2.6 8.2-.9 3.2-1.7 6.4-2.3 9.6-.3 1.4-.5 2.8-.8 4.1 0 .2-.1.7-.2 1.3 21.4 5.5 46.7 8.6 76.7 8.8 35.7.2 64.9-3.7 88.7-10.7-.7-2.4-1.4-4.5-2.1-6.6z"/>
    <circle fill="#3F2D20" cx="1010.1" cy="599.1" r="25.1"/>
    <circle fill="#F4F4F4" cx="1003.3" cy="600.6" r="8.6"/>
    <circle fill="#F4F4F4" cx="1017.1" cy="611.8" r="3.6"/>
    <path fill="#3F2D20"
          d="M1001.1 520.5c5.3-16.9 32-12.6 34.3 4.1.6 4.1-5.6 5.8-6.2 1.7-.7-4.7-3.1-7.8-7.7-9.3-5.4-1.8-12.3-.9-14.2 5.2-1.3 3.9-7.5 2.2-6.2-1.7z"/>
    <ellipse opacity=".46" fill="#F9C0C7" cx="770.2" cy="659.3" rx="31.9" ry="23.6"/>
    <ellipse opacity=".46" fill="#F9C0C7" cx="1068" cy="657.1" rx="31.9" ry="23.6"/>
    <path fill="#7A6659"
          d="M762.3 644.6c-26.7-13.5-59.1-12.4-84.7 3.1-3.5 2.2-.3 7.7 3.3 5.6 23.6-14.3 53.5-15.6 78.2-3.1 3.7 1.9 7-3.7 3.2-5.6zM762.2 669.1c-28.6 3.2-54.7 20.9-62.3 49.7-1.1 4 5.2 5.7 6.2 1.7 6.8-25.8 30.3-42 56.1-44.9 4.1-.6 4.1-7 0-6.5zM1131.7 708c-8.3-22.7-27.9-40-51.7-44.9-4.1-.8-5.8 5.4-1.7 6.2 20.7 4.3 38.3 18.7 46.4 38.2 0 .4.1.9.4 1.3.3.6.5 1.1.8 1.7 1.5 3.2 7 .9 5.8-2.5zM1162.7 650.7c-23.1-18.9-55.8-22.7-82.5-9.5-3.7 1.8-.5 7.4 3.3 5.6 24-11.9 54-8.5 74.7 8.5 3.2 2.5 7.7-2 4.5-4.6z"/>
    <g fill="#E0DDDC"><path d="M888.8 487.6c4 12.5 12.4 22.9 25.2 26.9 12.4 3.9 23.3-3.2 29.9-13.2 8.7-13 11.1-30.1 14.2-45.1 3.4-16.5 6-33.1 8.1-49.8.1-1.2.3-2.3.4-3.5-15.3-2.8-31.4-4.2-48.3-4.2-13.9 0-27.3 1-40.2 2.8.5 12.9 1.5 25.7 2.8 38.5 1.8 15.9 3.1 32.5 7.9 47.6zM832.1 477.3c6.2 7.2 16.9 10.6 25.5 5.7 9.2-5.2 8.8-21.7 9.4-30.6.9-12.8-.2-25.7-2.6-38.3-.5-2.9-1.1-6.2-1.8-9.7-19.9 4.2-38.3 10.8-55 19.7 2.8 6.9 5.7 13.8 8.5 20.7 4.5 11 8.1 23.4 16 32.5zM977.5 452.4c.6 8.9.2 25.4 9.4 30.6 8.6 4.9 19.2 1.5 25.5-5.7 7.9-9.1 11.6-21.5 16.1-32.5 2.3-5.7 4.7-11.3 7-17-16.3-9.5-34.3-16.8-53.8-21.7-.6 2.8-1 5.5-1.5 7.9-2.5 12.7-3.5 25.6-2.7 38.4z"/></g>
    <g><circle fill="#F7D408" cx="921.9" cy="838.6" r="42.6"/>
        <circle fill="#FFE706" cx="921.9" cy="832.8" r="33.3"/>
        <circle fill="#A54B0E" cx="922.1" cy="838.4" r="10.6"/>
        <path fill="#A54B0E"
              d="M925.4 841.3c-.4-4.1-6.8-4.1-6.4 0 1.2 13.2 1 26.8-4.4 39.2 2.2.4 4.4.6 6.7.6 4.9-12.6 5.3-26.2 4.1-39.8z"/></g>
    <g fill="#EFE3DF"><path d="M878.6 1031.1c.2-1.4.2-2.8.2-4.3 0-1.4-.1-2.9-.1-4.3-.1-2.5-.4-4.9-.9-7.3-3.1-33.4-6.2-66.7-9.2-100.1-.9-9.4-3.2-17.4-10.1-24.3-6.4-6.4-15.2-10.1-24.3-10.1-17.4 0-36.1 15.7-34.4 34.4l10.3 111.6c.2 2.2.5 4.3.9 6.3-2.2.8-4.3 2.1-6 3.7-3 3-4.7 7.1-4.7 11.4s1.7 8.4 4.7 11.4 7.1 4.7 11.4 4.7h.4c4.3 0 8.4-1.7 11.4-4.7.5-.5.9-1 1.3-1.5.5 3.5 2 6.8 4.6 9.3 3 3 7.1 4.7 11.4 4.7h.4c4.3 0 8.4-1.7 11.4-4.7 2.6-2.6 4.2-5.9 4.6-9.5 2.6 2.5 6.2 4.2 10.9 4.2 18.3.3 20.3-25.3 5.8-30.9zM1036.2 917.4c1.7-18.7-16.9-34.4-34.4-34.4-9.1 0-17.9 3.6-24.3 10.1-6.9 6.9-9.2 14.9-10.1 24.3-3.1 33.4-6.2 66.7-9.2 100.1-.5 2.4-.9 4.8-.9 7.3 0 1.4-.1 2.9-.1 4.3 0 1.5 0 2.9.2 4.3-14.5 5.6-12.5 31.1 6 31.1 4.7 0 8.3-1.6 10.9-4.2.4 3.6 2 6.9 4.6 9.5 3 3 7.1 4.7 11.4 4.7h.4c4.3 0 8.4-1.7 11.4-4.7 2.5-2.5 4.1-5.8 4.6-9.3.4.5.8 1 1.3 1.5 3 3 7.1 4.7 11.4 4.7h.4c4.3 0 8.4-1.7 11.4-4.7s4.7-7.1 4.7-11.4c0-4.3-1.7-8.4-4.7-11.4-1.7-1.7-3.7-2.9-6-3.7.4-2 .7-4.2.9-6.3l10.1-111.8z"/></g>
    <g><path fill="#EDCAB2" d="M232.4 889.9c-2.3 7.7 3.2 15.9 10.3 19.7 7.1 3.8 15.3 4.4 23.2 5.7 23 3.7 46.3 14.7 57.9 34.9 11.7 20.2 7.1 50.2-13.5 61.2-16.6-19.2-46.2-17.8-70.6-24.9-24.8-7.2-47.1-26.4-53.1-51.5s7.7-54.9 32.4-62.5c6.6-2 16.3-.6 17.1 6.2.4 3.9-2.6 7.4-3.7 11.2z"/>
        <path fill="#F4E8DF"
              d="M643 848.6c19.1 85.1 7.5 214.3-185.5 212.9-174.5-1.3-199.7-107.7-179-212.9 22-111.4 81.6-195.1 182.3-195.1s159 92.1 182.2 195.1z"/>
        <path fill="#066BB7"
              d="M601.9 722.2c-9.6 25.3-65.5 49-146.4 49s-138.2-23.2-146.4-49c-24.3-76.2 65.5-49 146.4-49s174.3-24.4 146.4 49z"/>
        <circle fill="#F7D408" cx="460.5" cy="789.5" r="42.6"/>
        <circle fill="#FFE706" cx="460.5" cy="783.7" r="33.3"/>
        <circle fill="#A54B0E" cx="460.7" cy="789.3" r="10.6"/>
        <path fill="#A54B0E"
              d="M464 792.2c-.4-4.1-6.8-4.1-6.4 0 1.2 13.2 1 26.8-4.4 39.2 2.2.4 4.4.6 6.7.6 4.8-12.7 5.3-26.2 4.1-39.8z"/>
        <path fill="#3F2D20"
              d="M576.6 369.1c3.8 1.3 8.2 2.3 11.8.5 4-1.9 5.8-6.6 7.1-10.8 3.7-12.7 5.5-26.1 5.1-39.3-17.8.5-35 10.3-44.6 25.2-2 3-3.7 6.6-2.7 10.1 1 3.4 4.2 5.6 7.3 7.3 5 2.8 10.4 5.2 16 7zM340.5 369.1c-3.8 1.3-8.2 2.3-11.8.5-4-1.9-5.8-6.6-7.1-10.8-3.7-12.7-5.5-26.1-5.1-39.3 17.8.5 35 10.3 44.6 25.2 2 3 3.7 6.6 2.7 10.1-1 3.4-4.2 5.6-7.3 7.3-5.1 2.8-10.5 5.2-16 7z"/>
        <path fill="#CCB9AC"
              d="M555.2 1017c-3.8-38.4-10.4-79.9-38.3-106.5-18.1-17.2-43.9-25.9-68.7-23.1-24.8 2.8-48 17.1-61.8 37.9-14.8 22.4-18.2 50.1-21.3 76.8-1.7 15.1-3.3 31.2.9 45.6 24.5 8.6 54.6 13.6 91.4 13.8 39.9.3 72.1-5 97.8-14.3 1.8-9.8 1-20.2 0-30.2z"
              opacity=".65"/>
        <path fill="#F4E8DF"
              d="M659.6 531.2c41.3 124.6-92.9 206.6-207.4 206.6s-252.9-83.6-207.4-206.6c50.3-136.1 92.9-215.4 207.4-215.4s157.6 65.4 207.4 215.4z"/>
        <path fill="#3F2D20"
              d="M409 663.5c-1.6-2.1-2.9-4.3-4-6.5-9.7-19.8 5.1-43.5 26.6-45.2 5-.4 10.1-.6 15.3-.6 6.7 0 13.5.3 20 .9 16.3 1.4 29.1 15.2 29.3 31.6.2 19.4-19.4 33.8-36 39.7-18.7 6.5-39.9-4.7-51.2-19.9z"/>
        <ellipse fill="#845739" cx="433.7" cy="638.8" rx="15.1" ry="11.5"/>
        <path fill="#EDCAB2"
              d="M436.5 529.5c17.4 44.3-18.8 82.7-80.7 85.2-58.4 2.3-97.6-39.4-77.1-85.3 24.5-54.8 35.4-91 78.9-91 43.6 0 56.5 34 78.9 91.1z"/>
        <path fill="#3F2D20"
              d="M449.9 678.5c-.1-3.2-4.8-3.2-4.6 0 .6 13.8-12 20.5-23.1 21.4-5.9.5-11.7-.3-16.7-3.7-4.8-3.2-10-9-10.2-15.3-.1-3.2-4.7-3.2-4.6 0 .2 7.4 4.9 13.2 10 17.7 6.2 5.5 13.6 6.7 21.5 6.3 13.5-.7 28.4-10.1 27.7-26.4z"/>
        <path fill="#3F2D20"
              d="M446.6 678.5c.1-3.2 4.8-3.2 4.6 0-.6 13.8 12 20.5 23.1 21.4 5.9.5 11.7-.3 16.7-3.7 4.8-3.2 10-9 10.2-15.3.1-3.2 4.7-3.2 4.6 0-.2 7.4-4.9 13.2-10 17.7-6.2 5.5-13.6 6.7-21.5 6.3-13.6-.7-28.5-10.1-27.7-26.4z"/>
        <circle fill="#3F2D20" cx="357.3" cy="551.2" r="30.7"/>
        <circle fill="#F4F4F4" cx="365.7" cy="552.9" r="10.5"/>
        <circle fill="#F4F4F4" cx="348.8" cy="566.8" r="4.4"/>
        <path fill="#3F2D20"
              d="M367.2 472.6c-5.8-18.4-34.8-13.7-37.3 4.4-.6 4.4 6.1 6.3 6.8 1.9.7-5.1 3.4-8.4 8.3-10.1 5.8-2 13.4-.9 15.4 5.7 1.4 4.3 8.2 2.5 6.8-1.9z"/>
        <path fill="#593D2A"
              d="M339.5 326.6c5.6 6.6 3.6 16.6 1.3 25-13.4 48-26.8 96.1-40.2 144.1-3.9 13.9-10.5 30.4-24.8 32.5-10.5 1.6-20.1-5.6-27.5-13.1-22.2-22.5-54.7-55.9-57-87.4-2.3-31.5 26.2-60.8 48.7-83 22.5-22.1 56.6-32.6 87.2-24.7 4.5 1.3 9.2 3 12.3 6.6z"/>
        <g><circle fill="#3F2D20" cx="532.5" cy="551.2" r="30.7"/>
            <circle fill="#F4F4F4" cx="524.1" cy="552.9" r="10.5"/>
            <circle fill="#F4F4F4" cx="541" cy="566.8" r="4.4"/></g>
        <path fill="#3F2D20"
              d="M527.4 472.6c5.8-18.4 34.8-13.7 37.3 4.4.6 4.4-6.1 6.3-6.8 1.9-.7-5.1-3.4-8.4-8.3-10.1-5.8-2-13.4-.9-15.4 5.7-1.4 4.3-8.2 2.5-6.8-1.9z"/>
        <g><path fill="#EDCAB2" d="M460.3 392.8c17.5 12.7 41.5 9.6 62.5 4.7 21-4.9 43.7-10.8 63.6-2.5 7.7 3.3 15.1 8.6 22.5 13.1-36-63.5-80.5-92.4-156.7-92.4-4.2 0-8.3.1-12.4.3 0 .3 0 .6-.1.9-1.9 27.5-1.6 59.8 20.6 75.9z"/></g>
        <path fill="#593D2A"
              d="M577.5 326.6c-5.6 6.6-3.6 16.6-1.3 25 13.4 48 26.8 96.1 40.2 144.1 3.9 13.9 10.5 30.4 24.8 32.5 10.5 1.6 20.1-5.6 27.5-13.1 22.2-22.5 54.7-55.9 57-87.4 2.3-31.5-26.2-60.8-48.7-83-22.5-22.1-56.6-32.6-87.2-24.7-4.5 1.3-9.2 3-12.3 6.6z"/>
        <path fill="#EAD4C5"
              d="M403.7 1059.7c.3-1.3.5-2.6.7-3.9.1-1.3.2-2.6.4-3.9.2-2.3.2-4.5-.1-6.7l2.1-92.4c.2-8.7-1.2-16.3-7.2-23.4-5.6-6.6-13.8-11-22.7-12.1-17.1-2.1-37.2 10-37.6 27.2l-2.3 103c0 2 0 4 .2 5.9-2.3.5-4.4 1.4-6.3 2.7-3.3 2.4-5.4 5.9-5.9 9.8-.5 3.9.7 7.8 3.4 11 2.6 3.1 6.5 5.2 10.7 5.7h.4c4.2.5 8.4-.6 11.7-2.9.5-.4 1-.8 1.4-1.2.1 3.3 1.2 6.5 3.4 9.1 2.6 3.1 6.5 5.2 10.7 5.7h.4c4.2.5 8.4-.6 11.7-2.9 2.8-2 4.7-4.9 5.6-8.1 2.2 2.6 5.6 4.6 10.2 5.1 17.9 2.2 22.7-20.9 9.1-27.7zM583.1 938.8c-1.6-17.2-22.4-27.8-39.3-24.6-8.8 1.7-16.7 6.6-21.8 13.6-5.5 7.5-6.3 15.1-5.5 23.8 2.8 30.7 5.6 61.3 8.5 92-.1 2.2 0 4.5.3 6.7l.6 3.9c.2 1.3.5 2.6.9 3.8-13.1 7.7-6.7 30.4 11.3 27 4.5-.9 7.8-3 9.8-5.8 1 3.1 3.2 5.9 6.1 7.7 3.4 2.1 7.7 2.9 11.9 2.1l.3-.1c4.1-.8 7.8-3.1 10.2-6.4 2-2.7 3-6 2.8-9.3.5.4 1 .8 1.5 1.1 3.4 2.1 7.7 2.9 11.9 2.1l.3-.1c4.1-.8 7.8-3.1 10.2-6.4 2.4-3.3 3.3-7.3 2.6-11.2s-3.1-7.2-6.6-9.4c-1.9-1.2-4.1-2-6.4-2.3 0-1.9-.1-3.9-.2-5.9l-9.4-102.3z"/></g></svg>